<?xml version="1.0" encoding="UTF-8"?>
<svg id="Layer_2" data-name="Layer 2" xmlns="http://www.w3.org/2000/svg" viewBox="0 0 482.19 166.27">
  <defs>
    <style>
      .cls-1 {
        fill: #6a43b8;
      }

      .cls-2 {
        fill: #fff;
      }

      .cls-3 {
        fill: #7ce5e9;
      }

      .cls-4 {
        fill: #67bec2;
      }
    </style>
  </defs>
  <g id="_ÎÓÈ_1" data-name="—ÎÓÈ_1">
    <g>
      <rect class="cls-1" x="19.95" y="126.37" width="442.28" height="6.65"/>
      <rect class="cls-1" x="475.53" y="19.95" width="6.65" height="93.11" transform="translate(957.72 133.02) rotate(180)"/>
      <rect class="cls-1" x="468.88" y="13.3" width="6.65" height="6.65" transform="translate(944.42 33.25) rotate(180)"/>
      <rect class="cls-1" x="462.23" y="119.71" width="6.65" height="6.65" transform="translate(931.12 246.08) rotate(180)"/>
      <rect class="cls-1" x="468.88" y="113.06" width="6.65" height="6.65" transform="translate(944.42 232.78) rotate(180)"/>
      <rect class="cls-1" x="405.7" y="133.02" width="6.65" height="6.65" transform="translate(818.05 272.68) rotate(180)"/>
      <rect class="cls-1" x="412.35" y="139.67" width="6.65" height="6.65" transform="translate(831.35 285.99) rotate(180)"/>
      <rect class="cls-1" x="412.35" y="146.32" width="6.65" height="6.65" transform="translate(831.35 299.29) rotate(180)"/>
      <rect class="cls-1" x="419" y="152.97" width="6.65" height="6.65" transform="translate(844.66 312.59) rotate(180)"/>
      <rect class="cls-1" x="405.7" y="159.62" width="6.65" height="6.65" transform="translate(818.05 325.89) rotate(180)"/>
      <rect class="cls-1" x="412.35" y="159.62" width="6.65" height="6.65" transform="translate(831.35 325.89) rotate(180)"/>
      <rect class="cls-1" x="399.05" y="159.62" width="6.65" height="6.65" transform="translate(804.75 325.89) rotate(180)"/>
      <rect class="cls-1" x="419" y="159.62" width="6.65" height="6.65" transform="translate(844.66 325.89) rotate(180)"/>
      <polygon class="cls-3" points="458.91 3.33 472.21 16.63 472.21 109.74 458.91 123.04 402.38 123.04 402.38 136.34 409.03 142.99 409.03 156.29 395.72 156.29 375.77 136.34 375.77 123.04 16.63 123.04 3.33 109.74 3.33 16.63 16.63 3.33 458.91 3.33"/>
      <g>
        <g>
          <rect class="cls-2" x="6.65" y="13.3" width="6.65" height="99.76"/>
          <rect class="cls-4" y="13.3" width="6.65" height="99.76"/>
          <rect class="cls-2" x="13.3" y="13.3" width="6.65" height="6.65"/>
          <rect class="cls-4" x="6.65" y="6.65" width="6.65" height="6.65"/>
          <rect class="cls-2" x="13.3" y="6.65" width="448.93" height="6.65"/>
          <rect class="cls-4" x="13.3" width="448.93" height="6.65"/>
          <rect class="cls-4" x="6.65" y="113.06" width="6.65" height="6.65"/>
          <rect class="cls-4" x="13.3" y="119.71" width="448.93" height="6.65"/>
          <rect class="cls-4" x="468.88" y="13.3" width="6.65" height="99.76" transform="translate(944.42 126.37) rotate(180)"/>
          <rect class="cls-4" x="462.23" y="6.65" width="6.65" height="6.65" transform="translate(931.12 19.95) rotate(180)"/>
          <rect class="cls-4" x="462.23" y="113.06" width="6.65" height="6.65" transform="translate(931.12 232.78) rotate(180)"/>
        </g>
        <rect class="cls-4" x="399.05" y="126.37" width="6.65" height="6.65" transform="translate(804.75 259.38) rotate(180)"/>
        <rect class="cls-4" x="399.05" y="133.02" width="6.65" height="6.65" transform="translate(804.75 272.68) rotate(180)"/>
        <rect class="cls-4" x="372.45" y="126.37" width="6.65" height="6.65" transform="translate(751.54 259.38) rotate(180)"/>
        <rect class="cls-4" x="372.45" y="133.02" width="6.65" height="6.65" transform="translate(751.54 272.68) rotate(180)"/>
        <rect class="cls-4" x="405.7" y="139.67" width="6.65" height="6.65" transform="translate(818.05 285.99) rotate(180)"/>
        <rect class="cls-4" x="405.7" y="146.32" width="6.65" height="6.65" transform="translate(818.05 299.29) rotate(180)"/>
        <rect class="cls-4" x="399.05" y="152.97" width="6.65" height="6.65" transform="translate(804.75 312.59) rotate(180)"/>
        <rect class="cls-4" x="405.7" y="152.97" width="6.65" height="6.65" transform="translate(818.05 312.59) rotate(180)"/>
        <rect class="cls-4" x="392.4" y="152.97" width="6.65" height="6.65" transform="translate(791.45 312.59) rotate(180)"/>
        <rect class="cls-4" x="385.75" y="146.32" width="6.65" height="6.65" transform="translate(778.15 299.29) rotate(180)"/>
        <rect class="cls-4" x="379.1" y="139.67" width="6.65" height="6.65" transform="translate(764.85 285.99) rotate(180)"/>
        <rect class="cls-3" x="379.1" y="113.06" width="19.95" height="19.95" transform="translate(778.15 246.08) rotate(180)"/>
        <rect class="cls-4" x="412.35" y="152.97" width="6.65" height="6.65" transform="translate(831.35 312.59) rotate(180)"/>
      </g>
      <g>
        <path class="cls-1" d="m65.13,57.93v20.49h5.85v5.85h-8.78v-2.93h-2.93v-23.41h-4.39v-5.85h4.39v-8.78h5.85v8.78h7.32v5.85h-7.32Z"/>
        <path class="cls-1" d="m99.89,55.01v29.27h-5.85v-26.34h-5.85v2.93h-2.93v23.41h-5.85v-49.75h5.85v20.49h2.93v-2.93h8.78v2.93h2.93Z"/>
        <path class="cls-1" d="m128.42,55.01v29.27h-5.85v-2.93h-2.93v2.93h-7.32v-2.93h-4.39v-14.63h4.39v-2.93h7.32v1.46h2.93v-7.32h-8.78v2.93h-5.85v-5.85h4.39v-2.93h11.71v2.93h4.39Zm-5.85,20.49v-4.39h-2.93v-1.46h-5.85v8.78h5.85v-2.93h2.93Z"/>
        <path class="cls-1" d="m157.32,55.01v29.27h-5.85v-26.34h-5.85v2.93h-2.93v23.41h-5.85v-32.19h5.85v2.93h2.93v-2.93h8.78v2.93h2.93Z"/>
        <path class="cls-1" d="m181.09,65.25v4.39h2.93v8.78h2.93v5.85h-5.85v-5.85h-2.93v-8.78h-5.85v14.63h-5.85v-49.75h5.85v29.27h5.85v-5.85h2.93v-5.85h5.85v5.85h-2.93v7.32h-2.93Z"/>
        <path class="cls-1" d="m239.99,52.08v32.19h-5.85v-2.93h-2.93v2.93h-8.78v-2.93h-2.93v-29.27h5.85v26.34h5.85v-2.93h2.93v-23.41h5.85Z"/>
        <path class="cls-1" d="m257.18,76.96v10.24h-1.46v2.93h-2.93v-2.93h1.46v-2.93h-4.39v-7.32h7.32Z"/>
        <path class="cls-1" d="m313.14,55.01v29.27h-5.85v-26.34h-5.85v2.93h-2.93v23.41h-5.85v-32.19h5.85v2.93h2.93v-2.93h8.78v2.93h2.93Z"/>
        <path class="cls-1" d="m327.04,78.42h8.78v-2.93h5.85v5.85h-5.85v2.93h-8.78v-2.93h-5.85v-26.34h5.85v-2.93h8.78v2.93h5.85v14.63h-14.63v8.78Zm0-14.63h8.78v-5.85h-8.78v5.85Z"/>
        <path class="cls-1" d="m363.99,63.79v8.78h2.93v5.85h2.93v5.85h-6.22v-5.85h-2.93v-5.85h-2.93v5.85h-2.93v5.85h-6.22v-5.85h2.93v-5.85h2.93v-8.78h-2.93v-5.85h-2.93v-5.85h6.22v5.85h2.93v5.85h2.93v-5.85h2.93v-5.85h6.22v5.85h-2.93v5.85h-2.93Z"/>
        <path class="cls-1" d="m385.2,57.93v20.49h5.85v5.85h-8.78v-2.93h-2.93v-23.41h-4.39v-5.85h4.39v-8.78h5.85v8.78h7.32v5.85h-7.32Z"/>
        <path class="cls-1" d="m399.47,76.96h7.32v7.32h-7.32v-7.32Zm.73-42.44h5.85v37.31h-5.85v-37.31Z"/>
      </g>
    </g>
  </g>
</svg>