<?xml version="1.0" encoding="UTF-8"?>
<svg id="Layer_2" data-name="Layer 2" xmlns="http://www.w3.org/2000/svg" viewBox="0 0 523.1 847.25">
  <defs>
    <style>
      .cls-1 {
        fill: #6a43b8;
      }

      .cls-2 {
        fill: #fff;
      }

      .cls-3 {
        fill: #ffdaf7;
      }

      .cls-4 {
        fill: #ffa1f3;
      }

      .cls-5 {
        fill: #7ce5e9;
      }

      .cls-6 {
        fill: #67bec2;
      }
    </style>
  </defs>
  <g id="_ÎÓÈ_1" data-name="—ÎÓÈ_1">
    <g>
      <g>
        <rect class="cls-6" x="188.6" y="425.77" width="156.2" height="57.55" transform="translate(164.33 -62.43) rotate(19.2)"/>
        <path class="cls-1" d="m330.99,508.41c-.11,0-.22-.02-.33-.06l-147.51-51.37c-.52-.18-.8-.75-.62-1.27l18.93-54.35c.09-.25.27-.46.51-.57.24-.12.51-.13.76-.04l147.51,51.37c.52.18.8.75.62,1.27l-18.93,54.35c-.09.25-.27.46-.51.57-.14.07-.29.1-.44.1Zm-146.24-52.99l145.62,50.71,18.27-52.46-145.62-50.71-18.27,52.46Z"/>
      </g>
      <g>
        <g>
          <g>
            <path class="cls-6" d="m189.66,363.14l215.91,68.43,113.63-318.94c9.94-27.89-6.33-58.27-35.05-65.46l-111.54-27.94c-24.4-6.11-49.55,6.8-58.8,30.19l-124.14,313.73Z"/>
            <path class="cls-1" d="m405.57,432.57c-.1,0-.2-.02-.3-.05l-215.91-68.43c-.26-.08-.48-.27-.6-.52-.12-.25-.13-.54-.03-.8L312.88,49.05c9.4-23.76,35.19-37,59.98-30.79l111.54,27.94c13.96,3.5,25.86,12.78,32.66,25.47,6.79,12.69,7.92,27.74,3.09,41.3l-113.63,318.94c-.15.41-.53.66-.94.66Zm-214.58-70.06l213.96,67.82,113.31-318.03c4.64-13.03,3.56-27.49-2.97-39.68-6.53-12.19-17.97-21.11-31.38-24.47l-111.54-27.94c-23.82-5.97-48.6,6.75-57.63,29.59l-123.75,312.73Z"/>
          </g>
          <g>
            <polygon class="cls-6" points="189.66 363.14 185.81 346.41 401.72 414.84 405.57 431.57 189.66 363.14"/>
            <path class="cls-1" d="m405.57,432.57c-.1,0-.2-.02-.3-.05l-215.91-68.43c-.34-.11-.59-.38-.67-.73l-3.85-16.73c-.08-.35.03-.72.3-.96.26-.24.64-.33.98-.22l215.91,68.43c.34.11.59.38.67.73l3.85,16.73c.08.35-.03.72-.3.96-.19.17-.43.26-.68.26Zm-215.06-70.21l213.69,67.73-3.33-14.47-213.69-67.73,3.33,14.47Z"/>
          </g>
          <g>
            <path class="cls-5" d="m480.3,30.44L368.76,2.5c-24.4-6.11-49.55,6.8-58.8,30.19l-124.14,313.73,36.08,11.43-7.62,18.14,143.99,49.57,8.65-21.75,34.82,11.04,113.63-318.94c9.94-27.89-6.33-58.27-35.05-65.46Z"/>
            <path class="cls-1" d="m358.25,426.55c-.11,0-.22-.02-.33-.05l-143.99-49.57c-.26-.09-.47-.28-.59-.54-.11-.25-.12-.54,0-.8l7.2-17.13-35.03-11.1c-.26-.08-.48-.27-.6-.52-.12-.25-.13-.54-.03-.8L309.03,32.31c9.4-23.76,35.19-37,59.98-30.79l111.54,27.94c13.96,3.5,25.86,12.78,32.66,25.47,6.79,12.69,7.92,27.74,3.09,41.3l-113.63,318.94c-.18.51-.73.78-1.24.62l-33.93-10.75-8.3,20.88c-.16.39-.53.63-.93.63Zm-142.65-51.17l142.07,48.91,8.3-20.86c.19-.49.73-.74,1.23-.58l33.9,10.74,113.31-318.03c4.64-13.03,3.56-27.49-2.97-39.68-6.53-12.19-17.96-21.11-31.38-24.47L368.52,3.47c-23.82-5.97-48.6,6.75-57.63,29.59l-123.75,312.73,35.05,11.11c.27.08.49.28.61.53.12.26.12.55.01.81l-7.21,17.15Z"/>
          </g>
          <g>
            <polygon class="cls-3" points="232.61 312.36 383.62 360.96 463.84 146.95 314.19 105.86 232.61 312.36"/>
            <path class="cls-1" d="m383.62,361.96c-.1,0-.2-.02-.31-.05l-151.01-48.6c-.26-.08-.48-.27-.6-.52-.12-.25-.13-.54-.03-.79l81.58-206.5c.19-.47.7-.73,1.19-.6l149.64,41.09c.27.07.5.26.63.51.13.25.14.54.05.81l-80.22,214.01c-.15.4-.53.65-.94.65Zm-149.69-50.23l149.09,47.98,79.5-212.09-147.72-40.57-80.86,204.67Z"/>
          </g>
          <g>
            <ellipse class="cls-6" cx="407.39" cy="65.08" rx="28.19" ry="26.24" transform="translate(44.6 261.52) rotate(-37.51)"/>
            <path class="cls-1" d="m405.5,93.06c-1.55,0-3.11-.13-4.67-.39-7.36-1.23-13.62-5.23-17.62-11.26-4.05-6.12-5.3-13.58-3.51-21.01,3.65-15.17,19.02-25.45,34.26-22.91,7.36,1.23,13.62,5.23,17.62,11.26,4.05,6.12,5.3,13.58,3.51,21.01-3.28,13.62-16,23.29-29.59,23.29Zm3.78-53.96c-12.69,0-24.57,9.04-27.63,21.76-1.66,6.88-.51,13.79,3.24,19.44,3.69,5.57,9.47,9.26,16.28,10.39,14.23,2.37,28.58-7.23,31.99-21.4,1.66-6.88.51-13.79-3.24-19.44-3.69-5.57-9.47-9.26-16.28-10.39-1.45-.24-2.91-.36-4.35-.36Z"/>
          </g>
          <g>
            <path class="cls-6" d="m204.29,329.43c.28-5.31,4.81-9.4,10.12-9.12,5.31.28,9.4,4.81,9.12,10.12-.28,5.31-4.81,9.4-10.12,9.12s-9.4-4.81-9.12-10.12Z"/>
            <path class="cls-1" d="m213.93,340.57c-.19,0-.38,0-.57-.01-2.84-.15-5.45-1.39-7.35-3.5s-2.87-4.84-2.72-7.67c.15-2.84,1.39-5.45,3.5-7.35,2.11-1.9,4.83-2.87,7.67-2.72,2.84.15,5.45,1.39,7.35,3.5s2.87,4.84,2.72,7.67c-.15,2.84-1.39,5.45-3.5,7.35-1.97,1.77-4.47,2.73-7.1,2.73Zm-.02-19.27c-2.14,0-4.17.78-5.77,2.22-1.71,1.54-2.72,3.66-2.84,5.96h0c-.12,2.3.66,4.52,2.21,6.23,1.54,1.71,3.66,2.72,5.97,2.84,2.3.12,4.52-.66,6.23-2.21,1.71-1.54,2.72-3.66,2.84-5.97.12-2.3-.66-4.52-2.21-6.23-1.54-1.71-3.66-2.72-5.97-2.84-.15,0-.31-.01-.46-.01Z"/>
          </g>
          <g>
            <path class="cls-6" d="m379.62,384.62c.28-5.31,4.81-9.4,10.12-9.12,5.31.28,9.4,4.81,9.12,10.12s-4.81,9.4-10.12,9.12c-5.31-.28-9.4-4.81-9.12-10.12Z"/>
            <path class="cls-1" d="m389.25,395.75c-.19,0-.38,0-.57-.01-2.84-.15-5.45-1.39-7.35-3.5s-2.87-4.84-2.72-7.67h0c.15-2.84,1.39-5.45,3.5-7.35,2.11-1.9,4.83-2.87,7.67-2.72,5.86.31,10.37,5.32,10.06,11.17-.15,2.84-1.39,5.45-3.5,7.35-1.97,1.77-4.47,2.73-7.1,2.73Zm-8.64-11.08c-.12,2.3.66,4.52,2.21,6.23,1.54,1.71,3.66,2.72,5.97,2.84,2.31.12,4.52-.66,6.23-2.21,1.71-1.54,2.72-3.66,2.84-5.96.25-4.75-3.42-8.82-8.17-9.07-2.3-.12-4.52.66-6.23,2.21-1.71,1.54-2.72,3.66-2.84,5.97h0Z"/>
          </g>
          <g>
            <path class="cls-6" d="m158.76,445.9L13.47,721.54c-14.41,27.34-2.06,61.16,26.59,72.76l118.64,48.06c25.06,10.15,53.72-.5,66.07-24.54l149.72-291.49-215.73-80.42Z"/>
            <path class="cls-1" d="m178.49,847.25c-6.71,0-13.54-1.28-20.16-3.96l-118.64-48.06c-13.92-5.64-24.85-16.96-30.01-31.06-5.15-14.1-4.09-29.81,2.91-43.09l145.29-275.63c.23-.45.76-.65,1.23-.47l215.73,80.42c.27.1.48.31.58.58.1.27.09.56-.04.82l-149.72,291.49c-9.41,18.33-27.8,28.97-47.17,28.97Zm-19.25-400.1L14.35,722c-6.74,12.78-7.76,27.9-2.8,41.47,4.96,13.57,15.49,24.47,28.88,29.9l118.64,48.06c24.75,10.02,52.6-.33,64.8-24.07l149.21-290.49-213.85-79.72Z"/>
          </g>
          <g>
            <polygon class="cls-5" points="206.92 373.45 361.75 426.76 346.65 476.47 186.68 420.14 206.92 373.45"/>
            <path class="cls-1" d="m346.65,477.47c-.11,0-.22-.02-.33-.06l-159.96-56.33c-.26-.09-.47-.29-.58-.54-.11-.25-.11-.54,0-.8l20.24-46.69c.21-.48.75-.72,1.24-.55l154.83,53.31c.51.18.79.72.63,1.24l-15.11,49.71c-.08.26-.26.48-.51.6-.14.07-.3.11-.45.11Zm-158.62-57.91l157.96,55.62,14.52-47.79-153.04-52.69-19.44,44.86Z"/>
          </g>
          <g>
            <path class="cls-5" d="m152.31,433.76L7.02,709.39c-14.41,27.34-2.06,61.16,26.59,72.76l118.64,48.06c25.06,10.15,53.72-.5,66.07-24.54l149.72-291.49-215.73-80.42Z"/>
            <path class="cls-1" d="m172.03,835.1c-6.71,0-13.54-1.28-20.16-3.96l-118.64-48.06c-13.92-5.64-24.85-16.96-30.01-31.06-5.15-14.1-4.09-29.81,2.91-43.09l145.29-275.63c.23-.45.76-.65,1.23-.47l215.73,80.42c.27.1.48.31.58.58.1.27.09.56-.04.82l-149.72,291.49c-9.41,18.33-27.8,28.97-47.17,28.97Zm-19.25-400.1L7.9,709.86c-6.74,12.78-7.76,27.9-2.8,41.47,4.96,13.57,15.49,24.47,28.88,29.9l118.64,48.06c24.75,10.02,52.6-.32,64.8-24.07l149.21-290.49-213.85-79.72Z"/>
          </g>
          <g>
            <path class="cls-5" d="m152.31,433.76l36.84,13.73s11.48-44.2,14.68-53.38c3.19-9.17,10.44-18.13,10.44-18.13l-26.74-7.61s-11.94,3.52-17.96,14.93-17.26,50.47-17.26,50.47Z"/>
            <path class="cls-1" d="m189.15,448.49c-.12,0-.24-.02-.35-.06l-36.84-13.73c-.49-.18-.76-.71-.61-1.21.46-1.6,11.33-39.29,17.33-50.66,6.15-11.65,18.06-15.27,18.57-15.42.18-.05.37-.05.56,0l26.74,7.61c.32.09.58.34.68.66s.04.67-.18.93c-.07.09-7.18,8.94-10.28,17.83-3.14,9.03-14.54,52.86-14.65,53.3-.07.27-.26.5-.51.64-.14.08-.3.11-.46.11Zm-35.62-15.34l34.93,13.02c1.81-6.96,11.49-43.96,14.42-52.38,2.57-7.37,7.61-14.49,9.69-17.25l-25.02-7.12c-1.76.6-11.84,4.39-17.1,14.35-5.4,10.23-15.21,43.5-16.92,49.39Z"/>
          </g>
          <g>
            <polygon class="cls-6" points="366.9 403.8 370.24 420.38 361.04 440.44 358.25 425.55 366.9 403.8"/>
            <path class="cls-1" d="m361.04,441.44s-.08,0-.12,0c-.43-.05-.78-.38-.86-.81l-2.79-14.89c-.03-.19-.02-.38.05-.55l8.65-21.75c.16-.41.58-.67,1.02-.63.44.04.8.36.89.8l3.34,16.57c.04.21.02.42-.07.61l-9.2,20.06c-.16.36-.52.58-.91.58Zm-1.75-15.78l2.15,11.51,7.76-16.91-2.61-12.95-7.3,18.35Z"/>
          </g>
          <g>
            <path class="cls-5" d="m361.75,426.76c-3.66.71-10.54-.1-16.98,16.3s-16.82,56.18-16.82,56.18l40.09,14.94s7.38-46,10.15-55.81c2.77-9.8,8.84-22.15,14.21-20.96l-30.65-10.64Z"/>
            <path class="cls-1" d="m368.04,515.18c-.12,0-.24-.02-.35-.06l-40.09-14.94c-.48-.18-.75-.69-.62-1.19.1-.4,10.47-40.03,16.85-56.29,5.99-15.26,12.6-16.18,16.55-16.73.42-.06.81-.11,1.17-.18.17-.03.35-.02.52.04l30.65,10.65c.5.17.78.71.63,1.22-.14.51-.66.82-1.18.7-4.25-.94-10.07,9.79-13.03,20.26-2.73,9.64-10.05,55.24-10.12,55.7-.05.3-.23.55-.48.71-.15.09-.33.14-.5.14Zm-38.89-16.56l38.1,14.2c1.21-7.47,7.44-45.74,9.98-54.72,2.15-7.59,6.62-17.82,11.6-20.87l-27.16-9.43c-.32.05-.65.1-1.01.15-3.74.52-9.4,1.31-14.96,15.48-5.81,14.81-14.99,49.26-16.55,55.19Z"/>
          </g>
          <g>
            <path class="cls-6" d="m366.6,541.68l1.44-27.5s6.56-61.63,18.29-73.31c11.73-11.67,9.37,13.75,7.31,44.84l-27.03,55.97Z"/>
            <path class="cls-1" d="m366.61,542.68c-.08,0-.17,0-.25-.03-.46-.12-.77-.55-.75-1.02l1.44-27.5c.27-2.58,6.73-62.18,18.58-73.97,2.8-2.78,5.05-3.73,6.89-2.89,4.99,2.27,4.23,17.2,2.46,43.39l-.34,5.11c0,.13-.04.25-.1.37l-27.03,55.97c-.17.35-.52.57-.9.57Zm24.55-103.7c-.98,0-2.41.9-4.12,2.6-11.35,11.29-17.93,72.09-18,72.71l-1.17,22.49,24.79-51.33.33-4.92c1.32-19.48,2.68-39.63-1.29-41.44-.16-.07-.34-.11-.53-.11Z"/>
          </g>
          <g>
            <g>
              <polygon class="cls-6" points="461.55 153.06 317.94 113.62 238.74 314.21 232.61 312.36 314.19 105.86 463.84 146.95 461.55 153.06"/>
              <path class="cls-1" d="m238.74,315.21c-.1,0-.19-.01-.29-.04l-6.13-1.85c-.27-.08-.49-.27-.61-.52-.12-.25-.13-.54-.03-.8l81.58-206.5c.19-.47.7-.73,1.19-.6l149.64,41.09c.27.07.5.26.63.51.13.25.14.54.05.81l-2.29,6.11c-.18.48-.7.75-1.2.61l-142.74-39.2-78.87,199.75c-.15.39-.53.63-.93.63Zm-4.8-3.49l4.21,1.27,78.86-199.73c.19-.47.7-.73,1.19-.6l142.73,39.19,1.58-4.23-147.72-40.57-80.85,204.65Z"/>
            </g>
            <rect class="cls-1" x="315.07" y="105.43" width="2" height="8.62" transform="translate(-16.29 148.23) rotate(-25.75)"/>
          </g>
          <g>
            <g>
              <path class="cls-3" d="m171.74,579.3c-14.82-5.48-23.89-21.84-17.33-36.9l6.45-13.05-26.03-10.04-18.64,37.24c-5.88,11.75-.47,26.02,11.72,30.91l53.81,21.6,11.09-21.99-21.07-7.79Z"/>
              <path class="cls-1" d="m181.72,610.07c-.12,0-.25-.02-.37-.07l-53.81-21.6c-6.07-2.44-10.88-7.34-13.2-13.46-2.32-6.12-1.97-12.98.96-18.83l18.64-37.24c.23-.46.77-.67,1.25-.49l26.03,10.04c.26.1.47.31.57.57.1.26.09.55-.04.81l-6.45,13.05c-2.74,6.28-2.74,13.31,0,19.75,3.08,7.22,9.19,12.96,16.78,15.77l21.07,7.79c.27.1.48.31.58.57.1.26.09.56-.04.82l-11.09,21.99c-.17.35-.53.55-.89.55Zm-46.4-89.49l-18.23,36.43c-2.72,5.43-3.03,11.55-.88,17.22,2.15,5.68,6.44,10.05,12.08,12.31l52.95,21.26,10.17-20.17-20.02-7.4h0c-8.1-2.99-14.63-9.14-17.93-16.86-2.96-6.95-2.95-14.54.03-21.38l5.99-12.11-24.16-9.32Z"/>
            </g>
            <g>
              <path class="cls-3" d="m266.39,586.84c-5.67,13.4-20.14,19.99-33.26,15.14l-33.35-12.32-11.06,22.22,64.56,25.92c10.74,4.31,23-.24,28.33-10.52l22.17-42.82-31.28-12.06-6.11,14.44Z"/>
              <path class="cls-1" d="m261.71,640.44c-2.93,0-5.91-.55-8.8-1.71l-64.56-25.92c-.26-.1-.46-.31-.56-.57-.1-.26-.08-.55.04-.8l11.06-22.22c.23-.46.76-.67,1.24-.49l33.35,12.32c12.52,4.63,26.58-1.78,32-14.59l6.11-14.44c.21-.5.78-.74,1.28-.54l31.28,12.06c.27.1.47.31.58.58.1.27.08.56-.05.81l-22.17,42.82c-4.16,8.03-12.26,12.7-20.79,12.7Zm-71.62-29.09l63.56,25.52c10.32,4.14,21.95-.18,27.07-10.05l21.66-41.83-29.33-11.31-5.73,13.55c-5.84,13.8-21,20.69-34.53,15.69l-32.51-12.01-10.18,20.45Z"/>
            </g>
            <g>
              <path class="cls-3" d="m165.78,519.42c5.74-13.18,20.03-19.62,33.01-14.9l30.15,10.96,10.31-20.44-59.33-21.46c-10.72-3.88-22.64.88-27.74,11.07l-13.88,27.73,26.07,9.87,1.4-2.82Z"/>
              <path class="cls-1" d="m164.38,523.25c-.12,0-.24-.02-.35-.06l-26.07-9.87c-.26-.1-.47-.31-.58-.57-.1-.26-.09-.56.04-.81l13.88-27.72c5.33-10.64,17.78-15.61,28.97-11.57l59.33,21.46c.27.1.48.31.59.57.11.27.09.56-.04.82l-10.31,20.44c-.23.45-.76.66-1.23.49l-30.15-10.96c-12.55-4.56-26.2,1.61-31.75,14.36,0,.01-.01.03-.02.04l-1.4,2.82c-.17.35-.53.56-.9.56Zm-24.68-11.42l24.19,9.16.98-1.99c5.99-13.72,20.71-20.35,34.26-15.42l29.31,10.65,9.41-18.64-58.27-21.07c-10.23-3.7-21.63.85-26.5,10.58l-13.38,26.73Z"/>
            </g>
            <g>
              <path class="cls-3" d="m308.51,520.08l-62.78-22.71-10.2,20.49,24.55,8.92c14.67,5.33,21.88,22.67,15.76,37.66l32.02,12.13,12.96-25.03c6.24-12.05.45-26.85-12.31-31.46Z"/>
              <path class="cls-1" d="m307.86,577.58c-.12,0-.24-.02-.35-.06l-32.02-12.13c-.25-.1-.45-.29-.56-.54-.11-.25-.11-.53,0-.78,2.91-7.12,2.79-15.23-.32-22.25-2.96-6.68-8.24-11.69-14.85-14.09l-24.55-8.92c-.27-.1-.48-.3-.59-.57-.11-.26-.09-.56.03-.82l10.2-20.49c.23-.45.76-.67,1.24-.49l62.78,22.71c6.35,2.3,11.41,7.23,13.87,13.52,2.46,6.29,2.09,13.34-1.01,19.34l-12.96,25.03c-.18.34-.52.54-.89.54Zm-30.72-13.7l30.25,11.45,12.55-24.24c2.84-5.49,3.18-11.94.93-17.7-2.25-5.76-6.88-10.26-12.69-12.37l-61.94-22.4-9.31,18.69,23.5,8.54c7.13,2.59,12.81,7.98,16,15.16,3.19,7.2,3.44,15.47.72,22.86Z"/>
            </g>
          </g>
          <g>
            <path class="cls-4" d="m172.77,523.54l-9.5,19.15c-6.17,12.36.26,25.95,13.14,30.96l53.34,20.75c11.4,4.44,24.3-.63,29.64-11.63l8.78-18.09c6-12.38.13-27.25-12.72-32.17l-53.26-20.41c-11.29-4.33-24.01.63-29.41,11.44Z"/>
            <path class="cls-1" d="m238.16,596.99c-2.93,0-5.91-.53-8.77-1.65l-53.34-20.75c-6.86-2.67-12.2-7.85-14.66-14.2-2.27-5.87-1.92-12.31.98-18.13l9.5-19.15s0,0,0,0c5.65-11.33,18.83-16.46,30.66-11.93l53.26,20.41c6.38,2.45,11.49,7.5,14,13.85,2.51,6.36,2.25,13.53-.74,19.68l-8.78,18.09c-4.18,8.62-12.98,13.77-22.13,13.77Zm-64.49-73l-9.5,19.15c-2.65,5.31-2.97,11.18-.91,16.52,2.25,5.83,7.18,10.59,13.52,13.06l53.34,20.75c10.84,4.22,23.3-.68,28.37-11.14l8.78-18.09c2.74-5.65,2.99-12.24.68-18.08-2.31-5.84-7-10.48-12.86-12.72l-53.26-20.41c-10.86-4.16-22.96.55-28.16,10.96h0Z"/>
          </g>
          <g>
            <g>
              <path class="cls-6" d="m246.47,699.53l6.71-13.4c4.42-8.83.42-19.56-8.7-23.35l-32.52-13.49c-3.73,7.08-9.18,17.44-15.51,29.49l50.02,20.75Z"/>
              <path class="cls-1" d="m246.47,700.53c-.13,0-.26-.02-.38-.08l-50.02-20.75c-.26-.11-.46-.32-.56-.58-.1-.26-.08-.56.06-.8,6.33-12.05,11.78-22.41,15.51-29.49.24-.46.79-.66,1.27-.46l32.52,13.49c4.67,1.94,8.22,5.62,9.98,10.36,1.77,4.74,1.49,9.84-.77,14.36l-6.71,13.4c-.17.35-.53.55-.89.55Zm-48.63-22.26l48.15,19.98,6.29-12.57c2.01-4.02,2.26-8.56.69-12.77-1.57-4.21-4.72-7.48-8.88-9.21l-31.68-13.14c-3.61,6.85-8.7,16.53-14.58,27.71Z"/>
            </g>
            <g>
              <path class="cls-6" d="m158.94,750.57l51.32,21.29,13.97-27.9-50.87-21.11c-4.94,9.47-9.84,18.88-14.42,27.72Z"/>
              <path class="cls-1" d="m210.26,772.86c-.13,0-.26-.02-.38-.08l-51.32-21.29c-.26-.11-.46-.32-.56-.58-.1-.26-.08-.55.05-.8,4.58-8.83,9.48-18.25,14.42-27.72.24-.46.79-.66,1.27-.46l50.87,21.1c.26.11.46.31.55.57.1.26.08.55-.04.8l-13.97,27.9c-.17.35-.53.55-.89.55Zm-49.94-22.8l49.46,20.52,13.07-26.11-49.03-20.34c-4.62,8.85-9.19,17.64-13.5,25.93Z"/>
            </g>
            <g>
              <path class="cls-6" d="m137.59,792.37l36.1,16.16c8.32,3.72,18.1.23,22.18-7.92l9.88-19.74-51.45-21.35c-7.15,13.84-13.15,25.59-16.72,32.85Z"/>
              <path class="cls-1" d="m180.67,811.03c-2.47,0-4.98-.51-7.38-1.59l-36.1-16.16c-.25-.11-.44-.32-.53-.57-.09-.26-.08-.54.04-.78,3.29-6.68,8.92-17.74,16.73-32.87.24-.46.79-.66,1.27-.46l51.45,21.35c.26.11.46.31.55.57.1.26.08.55-.04.8l-9.88,19.74c-3.16,6.3-9.48,9.97-16.1,9.97Zm-41.72-19.15l35.16,15.74c7.86,3.52,17.03.24,20.88-7.45l9.4-18.78-49.61-20.58c-7.24,14.02-12.56,24.47-15.83,31.09Z"/>
            </g>
            <g>
              <path class="cls-6" d="m34.67,709.88l-7.02,13.57c-4.49,8.69-.76,19.37,8.17,23.37l27.92,12.5c3.42-6.94,9.01-17.9,15.69-30.86l-44.76-18.57Z"/>
              <path class="cls-1" d="m63.73,760.31c-.14,0-.28-.03-.41-.09l-27.92-12.5c-4.57-2.05-8-5.78-9.65-10.51-1.65-4.73-1.3-9.78,1.01-14.23l7.02-13.57c.24-.46.79-.66,1.27-.46l44.76,18.57c.26.11.46.32.56.58.1.26.08.55-.05.8-7.25,14.06-12.53,24.44-15.69,30.84-.17.35-.53.56-.9.56Zm-28.6-49.15l-6.6,12.75c-2.05,3.96-2.36,8.45-.89,12.65,1.47,4.2,4.52,7.52,8.58,9.34l27.04,12.1c3.12-6.31,8.09-16.07,14.78-29.05l-42.91-17.8Z"/>
            </g>
            <g>
              <path class="cls-6" d="m88.11,732.06c-6.83,13.24-12.48,24.33-15.8,31.1l56.69,25.38c3.67-7.42,9.6-19.03,16.62-32.61l-57.51-23.86Z"/>
              <path class="cls-1" d="m129.01,789.53c-.14,0-.28-.03-.41-.09l-56.69-25.38c-.25-.11-.44-.32-.53-.57-.09-.25-.08-.54.04-.78,3.06-6.25,8.38-16.72,15.81-31.12.24-.46.79-.66,1.27-.47l57.51,23.86c.26.11.46.32.56.58.1.26.08.55-.05.8-7.64,14.79-13.23,25.76-16.61,32.6-.17.35-.53.56-.9.56Zm-55.34-26.87l54.87,24.56c3.34-6.74,8.62-17.09,15.7-30.8l-55.66-23.09c-6.85,13.28-11.86,23.14-14.91,29.33Z"/>
            </g>
            <g>
              <path class="cls-6" d="m183.08,684.11l-57.54-23.87c-4.4,8.39-9.05,17.27-13.72,26.21l57.53,23.87c4.7-9,9.36-17.88,13.73-26.21Z"/>
              <path class="cls-1" d="m169.35,711.31c-.13,0-.26-.02-.38-.08l-57.53-23.87c-.26-.11-.46-.32-.56-.58-.1-.26-.08-.56.05-.8,4.67-8.94,9.32-17.82,13.72-26.21.24-.46.79-.66,1.27-.46l57.54,23.87c.26.11.46.32.56.58.1.26.08.56-.05.8-4.37,8.32-9.02,17.21-13.73,26.2-.18.34-.52.54-.89.54Zm-56.14-25.37l55.68,23.1c4.38-8.37,8.71-16.63,12.79-24.43l-55.68-23.1c-4.11,7.84-8.44,16.1-12.79,24.43Z"/>
            </g>
            <g>
              <path class="cls-6" d="m187.76,675.18c6.37-12.14,11.84-22.52,15.51-29.49l-57.54-23.88c-3.93,7.46-9.35,17.76-15.51,29.49l57.54,23.87Z"/>
              <path class="cls-1" d="m187.76,676.18c-.13,0-.26-.02-.38-.08l-57.54-23.87c-.26-.11-.46-.32-.56-.58-.1-.26-.08-.56.05-.8,6.16-11.73,11.58-22.04,15.51-29.5.24-.46.79-.66,1.27-.46l57.54,23.88c.26.11.46.32.56.58.1.26.08.56-.06.81-3.67,6.97-9.14,17.35-15.51,29.49-.18.34-.52.54-.89.54Zm-56.14-25.38l55.68,23.1c5.91-11.24,11-20.93,14.58-27.71l-55.68-23.11c-3.78,7.17-8.84,16.8-14.57,27.72Z"/>
            </g>
            <g>
              <path class="cls-6" d="m92.74,723.1l57.52,23.86c4.59-8.85,9.48-18.25,14.42-27.72l-57.53-23.87c-4.97,9.53-9.87,18.94-14.41,27.72Z"/>
              <path class="cls-1" d="m150.26,747.96c-.13,0-.26-.02-.38-.08l-57.52-23.86c-.26-.11-.46-.32-.56-.58-.1-.26-.08-.55.05-.8,4.55-8.78,9.44-18.19,14.42-27.72.24-.46.79-.66,1.27-.46l57.53,23.87c.26.11.46.32.56.58.1.26.08.56-.05.8-4.94,9.46-9.84,18.87-14.42,27.71-.18.34-.52.54-.89.54Zm-56.13-25.37l55.67,23.09c4.31-8.31,8.88-17.09,13.5-25.93l-55.67-23.1c-4.64,8.9-9.21,17.69-13.49,25.94Z"/>
            </g>
            <g>
              <path class="cls-6" d="m191.76,687.71c-4.37,8.34-9.03,17.22-13.72,26.21l50.71,21.04,13.22-26.41-50.2-20.83Z"/>
              <path class="cls-1" d="m228.74,735.95c-.13,0-.26-.02-.38-.08l-50.71-21.04c-.26-.11-.46-.32-.56-.58-.1-.26-.08-.56.05-.8,4.7-8.99,9.35-17.87,13.73-26.21.24-.46.79-.66,1.27-.46l50.2,20.83c.26.11.46.31.55.57.1.26.08.55-.04.8l-13.22,26.41c-.17.35-.53.55-.89.55Zm-49.31-22.54l48.84,20.26,12.32-24.62-48.37-20.07c-4.09,7.8-8.42,16.06-12.79,24.43Z"/>
            </g>
            <g>
              <path class="cls-6" d="m116.86,656.63l-44.99-18.67-13.59,26.26,44.86,18.61c4.68-8.95,9.33-17.83,13.72-26.21Z"/>
              <path class="cls-1" d="m103.14,683.84c-.13,0-.26-.02-.38-.08l-44.86-18.61c-.26-.11-.46-.32-.56-.58-.1-.26-.08-.55.05-.8l13.59-26.26c.24-.46.79-.66,1.27-.46l44.99,18.67c.26.11.46.32.56.58.1.26.08.56-.05.8-4.39,8.37-9.04,17.26-13.72,26.21-.18.34-.52.54-.89.54Zm-43.47-20.12l43.01,17.84c4.35-8.33,8.68-16.59,12.79-24.43l-43.13-17.9-12.66,24.48Z"/>
            </g>
            <g>
              <path class="cls-6" d="m137.06,618.21l-30.8-12.78c-8.17-3.39-17.58.04-21.65,7.9l-8.11,15.68,45.05,18.69c6.2-11.81,11.63-22.12,15.51-29.5Z"/>
              <path class="cls-1" d="m121.55,648.7c-.13,0-.26-.02-.38-.08l-45.05-18.69c-.26-.11-.46-.32-.56-.58-.1-.26-.08-.55.05-.8l8.11-15.68c4.27-8.25,14.34-11.93,22.92-8.37l30.8,12.78c.26.11.46.32.56.58.1.26.08.56-.06.81-3.88,7.37-9.31,17.69-15.51,29.49-.18.34-.52.54-.89.54Zm-43.66-20.2l43.2,17.92c5.76-10.96,10.83-20.6,14.58-27.72l-29.79-12.36c-7.63-3.17-16.58.1-20.38,7.44l-7.61,14.71Z"/>
            </g>
            <g>
              <path class="cls-6" d="m98.47,691.78l-44.82-18.6-14.35,27.74,44.76,18.57c4.55-8.79,9.45-18.21,14.42-27.72Z"/>
              <path class="cls-1" d="m84.06,720.5c-.13,0-.26-.02-.38-.08l-44.76-18.57c-.26-.11-.46-.32-.56-.58-.1-.26-.08-.55.05-.8l14.35-27.75c.24-.46.79-.66,1.27-.46l44.82,18.6c.26.11.46.32.56.58.1.26.08.56-.05.8-4.96,9.51-9.86,18.92-14.41,27.72-.18.34-.52.54-.89.54Zm-43.37-20.08l42.9,17.8c4.28-8.26,8.85-17.05,13.49-25.94l-42.96-17.83-13.43,25.96Z"/>
            </g>
          </g>
        </g>
        <g>
          <g>
            <rect class="cls-2" x="203.1" y="564.09" width="6.83" height="6.83" transform="translate(-396.77 539.9) rotate(-67.38)"/>
            <rect class="cls-2" x="212.04" y="560.41" width="6.83" height="6.83" transform="translate(-387.87 545.89) rotate(-67.38)"/>
            <rect class="cls-2" x="220.97" y="556.73" width="6.83" height="6.83" transform="translate(-378.98 551.87) rotate(-67.38)"/>
            <rect class="cls-2" x="229.91" y="553.05" width="6.83" height="6.83" transform="translate(-370.08 557.85) rotate(-67.38)"/>
            <rect class="cls-2" x="192.06" y="537.29" width="6.83" height="6.83" transform="translate(769.78 568.19) rotate(112.62)"/>
            <rect class="cls-2" x="229.91" y="553.05" width="6.83" height="6.83" transform="translate(-370.08 557.85) rotate(-67.38)"/>
            <rect class="cls-2" x="192.06" y="537.29" width="6.83" height="6.83" transform="translate(769.78 568.19) rotate(112.62)"/>
            <rect class="cls-2" x="232.54" y="546.75" width="6.83" height="6.83" transform="translate(-362.64 556.4) rotate(-67.38)"/>
            <rect class="cls-2" x="194.69" y="530.98" width="6.83" height="6.83" transform="translate(767.59 557.04) rotate(112.62)"/>
            <rect class="cls-2" x="195.74" y="546.22" width="6.83" height="6.83" transform="translate(783.12 577.17) rotate(112.62)"/>
            <rect class="cls-2" x="199.42" y="555.16" width="6.83" height="6.83" transform="translate(796.46 586.14) rotate(112.62)"/>
            <rect class="cls-2" x="203.1" y="564.09" width="6.83" height="6.83" transform="translate(809.81 595.12) rotate(112.62)"/>
            <rect class="cls-2" x="228.86" y="537.81" width="6.83" height="6.83" transform="translate(-356.66 547.5) rotate(-67.38)"/>
            <rect class="cls-2" x="203.63" y="527.3" width="6.83" height="6.83" transform="translate(776.57 543.68) rotate(112.62)"/>
            <rect class="cls-2" x="222.55" y="535.18" width="6.83" height="6.83" transform="translate(-358.11 540.06) rotate(-67.38)"/>
            <rect class="cls-2" x="209.93" y="529.93" width="6.83" height="6.83" transform="translate(787.73 541.51) rotate(112.62)"/>
            <rect class="cls-2" x="213.61" y="538.86" width="6.83" height="6.83" transform="translate(801.07 550.48) rotate(112.62)"/>
          </g>
          <path class="cls-2" d="m105.53,632.98l-1.15,2.45-7.04-3.3,1.15-2.45,2.45,1.15,6.31-13.48-2.45-1.15,1.15-2.45,2.45,1.15,1.15-2.45,2.45,1.15-8.61,18.38,2.14,1Z"/>
          <path class="cls-2" d="m170.9,647.97l-2.45-1.15,2.87-6.13-3.68-1.72-1.44,3.06-2.45-1.15,2.01-4.29,2.45,1.15.57-1.22,3.68,1.72-.57,1.22,2.45,1.15-3.44,7.35Zm-3.98,10.09l-1.15,2.45-9.19-4.3,1.15-2.45,1.23.57,1.43-3.06,1.23.57,1.72-3.68,1.23.57,1.43-3.06,2.45,1.15-1.43,3.06-1.23-.57-1.72,3.68-1.23-.57-1.43,3.06,5.51,2.58Z"/>
          <path class="cls-2" d="m230.46,672.67l-.57,1.23,1.84.86-4.3,9.19-2.45-1.15-.57,1.22-3.68-1.72.57-1.22-2.45-1.15,2.3-4.9,2.45,1.15-1.72,3.67,3.68,1.72,3.44-7.35-3.68-1.72,1.15-2.45,3.68,1.72,2.87-6.13-3.68-1.72-1.44,3.06-2.45-1.15,2.01-4.29,2.45,1.15.57-1.22,3.68,1.72-.57,1.22,2.45,1.15-3.73,7.96-1.84-.86Z"/>
          <path class="cls-2" d="m91.9,667.16l-2.45-1.15-2.87,6.12-2.45-1.15,2.87-6.12-4.9-2.3,6.31-13.48,2.45,1.15-5.16,11.03,2.45,1.15,5.74-12.25,2.45,1.15-5.74,12.25,2.45,1.15-1.15,2.45Z"/>
          <path class="cls-2" d="m149.25,676.82l-2.58,5.51,4.9,2.3-.57,1.22,1.22.57-4.88,10.42-2.45-1.15-.57,1.22-3.67-1.72.57-1.22-2.45-1.15,2.3-4.9,2.45,1.15-1.72,3.67,3.67,1.72,3.73-7.96-3.67-1.72-.29.61-2.45-1.15,5.16-11.03,8.58,4.02-1.15,2.45-6.12-2.87Z"/>
          <path class="cls-2" d="m213.12,707.22l1.44-3.06-3.68-1.72-2.87,6.13,4.9,2.3-.57,1.23,1.23.57-4.59,9.8-2.45-1.15-.57,1.22-3.68-1.72.57-1.22-2.45-1.15,8.61-18.38,2.45,1.15.57-1.22,3.68,1.72-.57,1.22,2.45,1.15-2.01,4.29-2.45-1.15Zm-6.26,3.79l-3.44,7.35,3.68,1.72,3.44-7.35-3.68-1.72Z"/>
          <path class="cls-2" d="m78.3,687.48l-1.15,2.45-1.23-.57-2.3,4.9-2.45-1.15-2.3,4.9-1.23-.57-4.02,8.57-2.45-1.15,4.02-8.57,1.23.57,2.87-6.13,2.45,1.15,1.72-3.67-6.13-2.87,1.15-2.45,9.8,4.59Z"/>
          <path class="cls-2" d="m131.9,720.71l-.57,1.23,1.23.57-4.3,9.19-2.45-1.15-.57,1.23-3.68-1.72.57-1.23-2.45-1.15,4.3-9.19,1.23.57.57-1.23-1.23-.57,3.73-7.96,2.45,1.15.57-1.23,3.68,1.72-.57,1.23,2.45,1.15-3.73,7.96-1.23-.57Zm-1.75-9.03l-2.87,6.12,3.68,1.72,2.87-6.12-3.68-1.72Zm-3.78,17.65l3.44-7.35-3.68-1.72-3.44,7.35,3.68,1.72Z"/>
          <path class="cls-2" d="m201.45,740.23l-8.61,18.38-2.45-1.15-.57,1.23-3.68-1.72.57-1.23-2.45-1.15,2.3-4.9,2.45,1.15-1.72,3.68,3.68,1.72,3.16-6.74-4.9-2.3.86-1.84-1.23-.57,4.02-8.57,2.45,1.15.57-1.23,3.68,1.72-.57,1.23,2.45,1.15Zm-3.02.08l-3.68-1.72-3.16,6.74,3.68,1.72,3.16-6.74Z"/>
          <path class="cls-2" d="m48.91,736.03l-.57,1.23-2.45-1.15.57-1.23-3.67-1.72.86-1.84,3.67,1.72.57-1.23,2.45,1.15-.57,1.23,3.68,1.72-.86,1.84-3.68-1.72Zm.13-6.66l-1.15,2.45-2.45-1.15,1.15-2.45,2.45,1.15Zm-5.61,5.59l2.45,1.15-1.15,2.45-2.45-1.15,1.15-2.45Zm9.36-.85l-2.45-1.15,1.15-2.45,2.45,1.15-1.15,2.45Zm-5.61,5.59l1.15-2.45,2.45,1.15-1.15,2.45-2.45-1.15Z"/>
          <path class="cls-2" d="m119.12,751.71l-8.61,18.38-2.45-1.15-.57,1.23-3.68-1.72.57-1.23-2.45-1.15,8.61-18.38,2.45,1.15.57-1.23,3.68,1.72-.57,1.23,2.45,1.15Zm-3.02.08l-3.68-1.72-2.01,4.29,1.23.57-1.15,2.45-1.23-.57-4.3,9.19,3.68,1.72,2.01-4.29-1.23-.57,1.15-2.45,1.23.57,4.3-9.19Zm-4.38,6.16l-1.15,2.45-1.23-.57,1.15-2.45,1.23.57Z"/>
          <path class="cls-2" d="m175.3,785.61l-2.01,4.29,2.45,1.15-1.15,2.45-3.68-1.72-2.01,4.29-2.45-1.15,2.01-4.29-2.45-1.15-2.01,4.29-2.45-1.15,2.01-4.29-2.45-1.15,1.15-2.45,3.68,1.72,2.01-4.29-2.45-1.15,1.15-2.45,3.68,1.72,2.01-4.29,2.45,1.15-2.01,4.29,2.45,1.15,2.01-4.29,2.45,1.15-2.01,4.29,2.45,1.15-1.15,2.45-3.68-1.72Zm-2.45-1.15l-2.45-1.15-2.01,4.29,2.45,1.15,2.01-4.29Z"/>
        </g>
      </g>
    </g>
  </g>
</svg>