<?xml version="1.0" encoding="UTF-8"?>
<svg id="Layer_2" data-name="Layer 2" xmlns="http://www.w3.org/2000/svg" viewBox="0 0 944.42 339.19">
  <defs>
    <style>
      .cls-1 {
        fill: #6a43b8;
      }

      .cls-2 {
        fill: #fff;
      }

      .cls-3 {
        fill: #ffdaf7;
      }

      .cls-4 {
        fill: #7ce5e9;
      }

      .cls-5 {
        fill: #bf8fb5;
      }

      .cls-6 {
        fill: #8353e3;
      }
    </style>
  </defs>
  <g id="_ÎÓÈ_1" data-name="—ÎÓÈ_1">
    <g>
      <g>
        <g>
          <polygon class="cls-5" points="944.42 339.19 937.59 332.36 937.77 6.65 944.42 0 944.42 339.19"/>
          <polygon class="cls-5" points="937.59 332.36 944.42 339.19 0 339.19 7.87 331.32 937.59 332.36"/>
          <polygon class="cls-3" points="0 0 6.83 6.83 6.65 332.54 0 339.19 0 0"/>
          <polygon class="cls-3" points="6.83 6.83 0 0 944.42 0 936.55 7.87 6.83 6.83"/>
        </g>
        <rect class="cls-2" x="3.33" y="3.33" width="937.77" height="332.54"/>
        <rect class="cls-6" x="6.65" y="6.65" width="931.12" height="46.56"/>
        <g>
          <rect class="cls-3" x="899.52" y="14.96" width="29.93" height="29.93"/>
          <polygon class="cls-5" points="929.45 14.96 929.45 44.89 899.52 44.89 929.45 14.96"/>
          <rect class="cls-2" x="902.85" y="18.29" width="23.28" height="23.28"/>
          <polygon class="cls-1" points="924.2 20.22 921.85 20.22 914.49 27.58 907.13 20.22 904.78 20.22 904.78 22.57 912.14 29.93 904.78 37.29 904.78 39.64 907.13 39.64 914.49 32.28 921.85 39.64 924.2 39.64 924.2 37.29 916.84 29.93 924.2 22.57 924.2 20.22"/>
        </g>
        <g>
          <rect class="cls-3" x="861.28" y="14.96" width="29.93" height="29.93"/>
          <polygon class="cls-5" points="891.21 14.96 891.21 44.89 861.28 44.89 891.21 14.96"/>
          <rect class="cls-2" x="864.61" y="18.29" width="23.28" height="23.28"/>
          <rect class="cls-1" x="867.43" y="36.31" width="17.64" height="3.33"/>
        </g>
      </g>
      <g>
        <g>
          <polygon class="cls-5" points="295.45 293.65 288.62 286.82 288.8 220.49 295.45 213.84 295.45 293.65"/>
          <polygon class="cls-5" points="288.62 286.82 295.45 293.65 46.04 293.65 53.91 285.78 288.62 286.82"/>
          <polygon class="cls-3" points="46.04 213.84 52.87 220.66 52.69 287 46.04 293.65 46.04 213.84"/>
          <polygon class="cls-3" points="52.87 220.66 46.04 213.84 295.45 213.84 287.58 221.71 52.87 220.66"/>
        </g>
        <rect class="cls-2" x="49.37" y="217.16" width="242.76" height="73.16"/>
      </g>
      <g>
        <path class="cls-1" d="m157.83,230.23v6.78h-2.26v9.05h-2.26v4.52h-2.26v18.09h-4.52v-18.09h-2.26v-4.52h-2.26v-9.05h-2.26v-6.78h4.52v6.78h2.26v9.05h4.52v-9.05h2.26v-6.78h4.52Z"/>
        <path class="cls-1" d="m166.03,264.15h6.78v-2.26h4.52v4.52h-4.52v2.26h-6.78v-2.26h-4.52v-20.35h4.52v-2.26h6.78v2.26h4.52v11.31h-11.31v6.78Zm0-11.31h6.78v-4.52h-6.78v4.52Z"/>
        <path class="cls-1" d="m194.29,250.58v-2.26h-6.78v5.65h7.91v2.26h3.39v10.18h-4.52v2.26h-6.78v-2.26h-4.52v-4.52h4.52v2.26h6.78v-5.65h-7.91v-2.26h-3.39v-10.18h4.52v-2.26h6.78v2.26h4.52v4.52h-4.52Z"/>
      </g>
      <g>
        <path class="cls-1" d="m229.79,115.91v45.89h-6.12v3.06h-15.3v-52h15.3v3.06h6.12Zm-6.12,3.06h-9.18v39.77h9.18v-39.77Z"/>
        <path class="cls-1" d="m260,134.26v27.53h-6.12v3.06h-9.18v-3.06h-6.12v-27.53h6.12v-3.06h9.18v3.06h6.12Zm-6.12,3.06h-9.18v21.41h9.18v-21.41Z"/>
        <path class="cls-1" d="m315.83,131.2v18.35h-3.06v10.71h-3.06v10.71h-3.06v9.18h-4.59v3.06h-7.65v-6.12h6.12v-7.65h3.06v-4.59h-3.06v-6.12h-3.06v-9.18h-3.06v-18.35h6.12v18.35h3.06v9.18h3.06v-9.18h3.06v-18.35h6.12Z"/>
        <path class="cls-1" d="m345.28,134.26v27.53h-6.12v3.06h-9.18v-3.06h-6.12v-27.53h6.12v-3.06h9.18v3.06h6.12Zm-6.12,3.06h-9.18v21.41h9.18v-21.41Z"/>
        <path class="cls-1" d="m375.11,131.2v33.65h-6.12v-3.06h-3.06v3.06h-9.18v-3.06h-3.06v-30.59h6.12v27.53h6.12v-3.06h3.06v-24.47h6.12Z"/>
        <path class="cls-1" d="m424.06,158.74v6.12h-9.18v-3.06h-3.06v-48.95h6.12v45.89h6.12Z"/>
        <path class="cls-1" d="m452.35,134.26v27.53h-6.12v3.06h-9.18v-3.06h-6.12v-27.53h6.12v-3.06h9.18v3.06h6.12Zm-6.12,3.06h-9.18v21.41h9.18v-21.41Z"/>
        <path class="cls-1" d="m481.04,131.2v15.3h-3.06v12.24h-3.06v6.12h-9.18v-6.12h-3.06v-12.24h-3.06v-15.3h6.12v15.3h3.06v12.24h3.06v-12.24h3.06v-15.3h6.12Z"/>
        <path class="cls-1" d="m494.42,158.74h9.18v-3.06h6.12v6.12h-6.12v3.06h-9.18v-3.06h-6.12v-27.53h6.12v-3.06h9.18v3.06h6.12v15.3h-15.3v9.18Zm0-15.3h9.18v-6.12h-9.18v6.12Z"/>
        <path class="cls-1" d="m575.49,134.26v30.59h-6.12v-27.53h-3.06v3.06h-3.06v24.47h-6.12v-27.53h-3.06v3.06h-3.06v24.47h-6.12v-33.65h6.12v3.06h3.06v-3.06h9.18v3.06h3.06v-3.06h6.12v3.06h3.06Z"/>
        <path class="cls-1" d="m590.03,158.74h9.18v-3.06h6.12v6.12h-6.12v3.06h-9.18v-3.06h-6.12v-27.53h6.12v-3.06h9.18v3.06h6.12v15.3h-15.3v9.18Zm0-15.3h9.18v-6.12h-9.18v6.12Z"/>
        <path class="cls-1" d="m631.33,115.91v24.47h-6.12v11.47h-6.12v-14.53h6.12v-18.35h-6.12v9.18h-6.12v-12.24h6.12v-3.06h6.12v3.06h6.12Zm-13,41.3h7.65v7.65h-7.65v-7.65Z"/>
      </g>
      <g>
        <path class="cls-4" d="m54.66,169.7l47.72-76.03c3.99-6.36,12.03-6.48,16.16-.24l50.26,76.03c5.19,7.84.44,19.28-8,19.28H62.81c-8.32,0-13.1-11.16-8.15-19.04Z"/>
        <path class="cls-1" d="m104.85,168.7c0-2.96,2.06-5.1,4.86-5.1,2.96,0,4.86,2.14,4.86,5.1s-1.89,5.1-4.86,5.1-4.86-2.22-4.86-5.1Zm2.06-11.77l-1.15-39.51h7.9l-1.15,39.51h-5.6Z"/>
      </g>
      <g>
        <g>
          <polygon class="cls-5" points="594.73 293.65 587.91 286.82 588.08 220.49 594.73 213.84 594.73 293.65"/>
          <polygon class="cls-5" points="587.91 286.82 594.73 293.65 345.33 293.65 353.2 285.78 587.91 286.82"/>
          <polygon class="cls-3" points="345.33 213.84 352.16 220.66 351.98 287 345.33 293.65 345.33 213.84"/>
          <polygon class="cls-3" points="352.16 220.66 345.33 213.84 594.73 213.84 586.86 221.71 352.16 220.66"/>
        </g>
        <rect class="cls-2" x="348.65" y="217.16" width="242.76" height="73.16"/>
      </g>
      <g>
        <path class="cls-1" d="m457.12,230.23v6.78h-2.26v9.05h-2.26v4.52h-2.26v18.09h-4.52v-18.09h-2.26v-4.52h-2.26v-9.05h-2.26v-6.78h4.52v6.78h2.26v9.05h4.52v-9.05h2.26v-6.78h4.52Z"/>
        <path class="cls-1" d="m465.31,264.15h6.78v-2.26h4.52v4.52h-4.52v2.26h-6.78v-2.26h-4.52v-20.35h4.52v-2.26h6.78v2.26h4.52v11.31h-11.31v6.78Zm0-11.31h6.78v-4.52h-6.78v4.52Z"/>
        <path class="cls-1" d="m493.58,250.58v-2.26h-6.78v5.65h7.91v2.26h3.39v10.18h-4.52v2.26h-6.78v-2.26h-4.52v-4.52h4.52v2.26h6.78v-5.65h-7.91v-2.26h-3.39v-10.18h4.52v-2.26h6.78v2.26h4.52v4.52h-4.52Z"/>
      </g>
      <g>
        <rect class="cls-1" x="644.62" y="210.51" width="256.06" height="86.46"/>
        <g>
          <g>
            <polygon class="cls-5" points="897.35 293.65 890.52 286.82 890.7 220.49 897.35 213.84 897.35 293.65"/>
            <polygon class="cls-5" points="890.52 286.82 897.35 293.65 647.94 293.65 655.81 285.78 890.52 286.82"/>
            <polygon class="cls-3" points="647.94 213.84 654.77 220.66 654.59 287 647.94 293.65 647.94 213.84"/>
            <polygon class="cls-3" points="654.77 220.66 647.94 213.84 897.35 213.84 889.48 221.71 654.77 220.66"/>
          </g>
          <rect class="cls-2" x="651.27" y="217.16" width="242.76" height="73.16"/>
          <g>
            <polygon class="cls-1" points="890.02 286.32 886.24 286.32 886.24 284.32 888.02 284.32 888.02 282.54 890.02 282.54 890.02 286.32"/>
            <path class="cls-1" d="m880.7,286.32h-5.54v-2h5.54v2Zm-11.08,0h-5.54v-2h5.54v2Zm-11.08,0h-5.54v-2h5.54v2Zm-11.08,0h-5.54v-2h5.54v2Zm-11.08,0h-5.54v-2h5.54v2Zm-11.08,0h-5.54v-2h5.54v2Zm-11.08,0h-5.54v-2h5.54v2Zm-11.08,0h-5.54v-2h5.54v2Zm-11.08,0h-5.54v-2h5.54v2Zm-11.08,0h-5.54v-2h5.54v2Zm-11.08,0h-5.54v-2h5.54v2Zm-11.08,0h-5.54v-2h5.54v2Zm-11.08,0h-5.54v-2h5.54v2Zm-11.08,0h-5.54v-2h5.54v2Zm-11.08,0h-5.54v-2h5.54v2Zm-11.08,0h-5.54v-2h5.54v2Zm-11.08,0h-5.54v-2h5.54v2Zm-11.08,0h-5.54v-2h5.54v2Zm-11.08,0h-5.54v-2h5.54v2Zm-11.08,0h-5.54v-2h5.54v2Z"/>
            <polygon class="cls-1" points="659.05 286.32 655.27 286.32 655.27 282.54 657.27 282.54 657.27 284.32 659.05 284.32 659.05 286.32"/>
            <path class="cls-1" d="m657.27,277.3h-2v-5.24h2v5.24Zm0-10.47h-2v-5.23h2v5.23Zm0-10.47h-2v-5.24h2v5.24Zm0-10.47h-2v-5.24h2v5.24Zm0-10.47h-2v-5.24h2v5.24Z"/>
            <polygon class="cls-1" points="657.27 224.95 655.27 224.95 655.27 221.16 659.05 221.16 659.05 223.16 657.27 223.16 657.27 224.95"/>
            <path class="cls-1" d="m880.7,223.16h-5.54v-2h5.54v2Zm-11.08,0h-5.54v-2h5.54v2Zm-11.08,0h-5.54v-2h5.54v2Zm-11.08,0h-5.54v-2h5.54v2Zm-11.08,0h-5.54v-2h5.54v2Zm-11.08,0h-5.54v-2h5.54v2Zm-11.08,0h-5.54v-2h5.54v2Zm-11.08,0h-5.54v-2h5.54v2Zm-11.08,0h-5.54v-2h5.54v2Zm-11.08,0h-5.54v-2h5.54v2Zm-11.08,0h-5.54v-2h5.54v2Zm-11.08,0h-5.54v-2h5.54v2Zm-11.08,0h-5.54v-2h5.54v2Zm-11.08,0h-5.54v-2h5.54v2Zm-11.08,0h-5.54v-2h5.54v2Zm-11.08,0h-5.54v-2h5.54v2Zm-11.08,0h-5.54v-2h5.54v2Zm-11.08,0h-5.54v-2h5.54v2Zm-11.08,0h-5.54v-2h5.54v2Zm-11.08,0h-5.54v-2h5.54v2Z"/>
            <polygon class="cls-1" points="890.02 224.95 888.02 224.95 888.02 223.16 886.24 223.16 886.24 221.16 890.02 221.16 890.02 224.95"/>
            <path class="cls-1" d="m890.02,277.3h-2v-5.24h2v5.24Zm0-10.47h-2v-5.24h2v5.24Zm0-10.47h-2v-5.24h2v5.24Zm0-10.47h-2v-5.24h2v5.24Zm0-10.47h-2v-5.24h2v5.24Z"/>
          </g>
        </g>
      </g>
      <g>
        <path class="cls-1" d="m759.73,230.23v6.78h-2.26v9.05h-2.26v4.52h-2.26v18.09h-4.52v-18.09h-2.26v-4.52h-2.26v-9.05h-2.26v-6.78h4.52v6.78h2.26v9.05h4.52v-9.05h2.26v-6.78h4.52Z"/>
        <path class="cls-1" d="m767.93,264.15h6.78v-2.26h4.52v4.52h-4.52v2.26h-6.78v-2.26h-4.52v-20.35h4.52v-2.26h6.78v2.26h4.52v11.31h-11.31v6.78Zm0-11.31h6.78v-4.52h-6.78v4.52Z"/>
        <path class="cls-1" d="m796.19,250.58v-2.26h-6.78v5.65h7.91v2.26h3.39v10.18h-4.52v2.26h-6.78v-2.26h-4.52v-4.52h4.52v2.26h6.78v-5.65h-7.91v-2.26h-3.39v-10.18h4.52v-2.26h6.78v2.26h4.52v4.52h-4.52Z"/>
      </g>
    </g>
  </g>
</svg>