<?xml version="1.0" encoding="utf-8"?>
<!-- Generator: Adobe Illustrator 27.6.1, SVG Export Plug-In . SVG Version: 6.00 Build 0)  -->
<svg version="1.1" id="Layer_1" xmlns="http://www.w3.org/2000/svg" xmlns:xlink="http://www.w3.org/1999/xlink" x="0px" y="0px"
	 viewBox="0 0 40 40" style="enable-background:new 0 0 40 40;" xml:space="preserve">
<style type="text/css">
	.st0{clip-path:url(#SVGID_00000024719659489882059030000007320540155032250554_);fill:#F22C8D;}
	.st1{clip-path:url(#SVGID_00000024719659489882059030000007320540155032250554_);fill:#FF005B;}
	.st2{clip-path:url(#SVGID_00000024719659489882059030000007320540155032250554_);fill:#FF5687;}
	
		.st3{opacity:0.36;clip-path:url(#SVGID_00000024719659489882059030000007320540155032250554_);fill:#9A0010;enable-background:new    ;}
	.st4{clip-path:url(#SVGID_00000024719659489882059030000007320540155032250554_);fill:#FF2C5B;}
	.st5{fill:#F22C8D;}
</style>
<g>
	<g>
		<defs>
			<path id="SVGID_1_" d="M27.6,38.9l4.8-8.3c0.6-1.1,0.6-2.4,0-3.5l-3.1-5.4l0-0.1l0,0l3.1-5.3c0.6-1.1,0.6-2.4,0-3.5l-4.8-8.3
				c-0.4-0.7-1.1-1.1-1.9-1.1h-9.1c-1.5,0-3,0.8-3.7,2.2L3.6,21.7l9.2,16.2c0.8,1.3,2.2,2.2,3.7,2.2h9.1
				C26.4,40,27.2,39.6,27.6,38.9L27.6,38.9z"/>
		</defs>
		<clipPath id="SVGID_00000008836458205995808260000010663303404088578219_">
			<use xlink:href="#SVGID_1_"  style="overflow:visible;"/>
		</clipPath>
		<polygon style="clip-path:url(#SVGID_00000008836458205995808260000010663303404088578219_);fill:#F22C8D;" points="7.6,14.6 
			14.1,3.5 26.9,3.5 33.3,14.6 26.9,25.7 14.1,25.7 		"/>
		<polygon style="clip-path:url(#SVGID_00000008836458205995808260000010663303404088578219_);fill:#FF005B;" points="7.6,28.9 
			14.1,17.7 26.9,17.7 33.3,28.9 26.9,40 14.1,40 		"/>
		<polygon style="clip-path:url(#SVGID_00000008836458205995808260000010663303404088578219_);fill:#FF5687;" points="3.6,21.7 
			10,10.6 22.8,10.6 29.3,21.7 22.8,32.8 10,32.8 		"/>
		
			<polygon style="opacity:0.36;clip-path:url(#SVGID_00000008836458205995808260000010663303404088578219_);fill:#9A0010;enable-background:new    ;" points="
			14.1,40 3.6,21.7 16.4,21.7 26.9,40 		"/>
		<polygon style="clip-path:url(#SVGID_00000008836458205995808260000010663303404088578219_);fill:#FF2C5B;" points="14.1,3.4 
			3.6,21.7 16.4,21.7 26.9,3.4 		"/>
	</g>
	<circle class="st5" cx="17.9" cy="1.1" r="1"/>
</g>
</svg>
