<?xml version="1.0" encoding="utf-8"?>
<!-- Generator: Adobe Illustrator 27.6.1, SVG Export Plug-In . SVG Version: 6.00 Build 0)  -->
<svg version="1.1" id="Layer_1" xmlns="http://www.w3.org/2000/svg" xmlns:xlink="http://www.w3.org/1999/xlink" x="0px" y="0px"
	 viewBox="0 0 819.6 434.8" style="enable-background:new 0 0 819.6 434.8;" xml:space="preserve">
<style type="text/css">
	.st0{clip-path:url(#SVGID_00000069387595560618872580000014713604547170699964_);fill:#F22C8D;}
	.st1{clip-path:url(#SVGID_00000069387595560618872580000014713604547170699964_);fill:#FF005B;}
	.st2{clip-path:url(#SVGID_00000069387595560618872580000014713604547170699964_);fill:#FF5687;}
	
		.st3{opacity:0.36;clip-path:url(#SVGID_00000069387595560618872580000014713604547170699964_);fill:#9A0010;enable-background:new    ;}
	.st4{clip-path:url(#SVGID_00000069387595560618872580000014713604547170699964_);fill:#FF2C5B;}
	.st5{fill:#FFFFFF;stroke:#FFFFFF;stroke-width:2;stroke-miterlimit:10;}
	.st6{fill:#FFFFFF;}
	.st7{fill:#FF5687;}
	.st8{fill:#F22C8D;}
</style>
<g>
	<defs>
		<path id="SVGID_1_" d="M261,422.6l51.9-89.9c6.8-11.8,6.8-26.3,0-38.1l-33.7-58.4l0.4-0.8l-0.2-0.3l33.5-57.9
			c6.8-11.8,6.8-26.3,0-38.1L261,49.4c-4.4-7.5-12.4-12.2-21.1-12.2h-98.6c-16.8,0-32.2,8.9-40.6,23.5L0,235.5l100.7,175.8
			c8.4,14.5,23.9,23.5,40.6,23.5h98.6C248.6,434.8,256.7,430.2,261,422.6L261,422.6z"/>
	</defs>
	<clipPath id="SVGID_00000124864224465989139350000011246952780338994839_">
		<use xlink:href="#SVGID_1_"  style="overflow:visible;"/>
	</clipPath>
	<polygon style="clip-path:url(#SVGID_00000124864224465989139350000011246952780338994839_);fill:#F22C8D;" points="44.3,158.2 
		114.2,37.2 254,37.2 323.9,158.2 254,279.3 114.2,279.3 	"/>
	<polygon style="clip-path:url(#SVGID_00000124864224465989139350000011246952780338994839_);fill:#FF005B;" points="44.3,313.7 
		114.2,192.7 254,192.7 323.9,313.7 254,434.8 114.2,434.8 	"/>
	<polygon style="clip-path:url(#SVGID_00000124864224465989139350000011246952780338994839_);fill:#FF5687;" points="0,235.5 
		69.9,114.4 209.7,114.4 279.6,235.5 209.7,356.6 69.9,356.6 	"/>
	
		<polygon style="opacity:0.36;clip-path:url(#SVGID_00000124864224465989139350000011246952780338994839_);fill:#9A0010;enable-background:new    ;" points="
		114.2,434.8 0,235.5 139.8,235.5 254,434.8 	"/>
	<polygon style="clip-path:url(#SVGID_00000124864224465989139350000011246952780338994839_);fill:#FF2C5B;" points="114.2,36.2 
		0,235.5 139.8,235.5 254,36.2 	"/>
</g>
<path class="st5" d="M362,82.1l-1.4,0.2v108.1h-4V78.1h8.4l40.1,90.8l40-90.8h8.4v112.2h-4V81H448l-40.3,91.6h-5.4L362,82.1
	L362,82.1z"/>
<path class="st5" d="M475.3,190.4H471l41.5-112.2h6.3l41.5,112.2h-4.3l-14.9-40.1h-51L475.3,190.4L475.3,190.4z M515.4,81.9
	l-23.8,64.4h48.2l-23.8-64.4L515.4,81.9L515.4,81.9z"/>
<path class="st5" d="M632.8,82.1h-37.4v108.3h-4V82.1H554v-4h78.8L632.8,82.1L632.8,82.1z"/>
<path class="st5" d="M643.7,107.9c0-20.6,20-31.4,39.8-31.4c14.1,0,28.2,5.4,34.9,16.2l-3.5,2.5c-5.9-9.7-19-14.9-31.9-14.9
	c-17.4,0-35.3,9.2-35.3,27.6v52.6c0,18.4,17.9,27.4,35.3,27.4c12.7,0,25.7-4.6,31.9-14.1l3.5,1.7c-6.7,10.8-21.1,16.3-35.3,16.3
	c-19.5,0-39.3-10.6-39.3-31.4V107.9L643.7,107.9z"/>
<path class="st5" d="M742.6,190.4h-4V78.1h4v54.2h70.9V78.1h4v112.2h-4v-54.1h-70.9V190.4z"/>
<path class="st6" d="M459,296c21.1,9,27.7,30.4,27.4,47.5c-0.8,39.6-26.3,51.2-59.7,51.2h-70v-192H427c28.2,0,50.2,16.3,50.2,46.6
	c0,16.3-6,30.9-19.2,38.8l-8.4,4.6L459,296L459,296z M427,289.8c25.2,0,43.7-12.5,43.7-40.1s-19.2-40.7-43.7-40.7h-63.5v80.8H427z
	 M427,388.2c30.6,0.5,52.6-11.7,52.6-45S459.2,296,427,296.3h-63.5v91.9L427,388.2L427,388.2z"/>
<path class="st7" d="M522.4,254.2c0-36.1,35.5-54.2,71.3-54.2s71.6,18.2,71.6,54.2v88.7c0,36.1-35.8,54.5-71.6,54.5
	s-71.3-18.4-71.3-54.5V254.2z M529.2,342.9c0,32,32,47.7,64.5,47.7s64.8-15.7,64.8-47.7v-88.7c0-33.6-32.8-47.7-65.1-47.7
	c-32.3,0.3-64.3,14.6-64.3,47.7L529.2,342.9L529.2,342.9z"/>
<path class="st6" d="M819.3,394.7h-7.9l-58.8-91.1l-58.8,91.1h-8.4l63.2-95.7l-62.9-96.3h7.6l59.4,90l59.1-90h7.9L756.4,299
	L819.3,394.7z"/>
<circle class="st8" cx="155.8" cy="11" r="11"/>
</svg>
